# xmcd
#
# Track frame offsets: 
#        150
#        18614
#        32031
#        49108
#
# Disc length: 827 seconds
#
# Revision: 1
# Processed by: cddbd v1.5.2PL0 Copyright (c) Steve Scherf et al.
# Submitted via: ExactAudioCopy v0.99pb4
#
DISCID=2c033904
DTITLE=Beachwood Sparks - By Your Side EP
DYEAR=2001
DGENRE=Indie
TTITLE0=By Your Side
TTITLE1=Sun Surrounds
TTITLE2=Quietly Be
TTITLE3=Close The Door Lightly When You Go
EXTD=
EXTT0=
EXTT1=
EXTT2=
EXTT3=
PLAYORDER=
